<?xml version="1.0" standalone="no"?>
<!DOCTYPE svg PUBLIC "-//W3C//DTD SVG 20010904//EN"
 "http://www.w3.org/TR/2001/REC-SVG-20010904/DTD/svg10.dtd">
<svg version="1.0" xmlns="http://www.w3.org/2000/svg"
 width="2816.000000pt" height="1536.000000pt" viewBox="0 0 2816.000000 1536.000000"
 preserveAspectRatio="xMidYMid meet">

<g transform="translate(0.000000,1536.000000) scale(0.100000,-0.100000)"
fill="#000000" stroke="none">
<path d="M19389 9783 c-3 -21 4 -59 13 -70 18 -22 100 -15 151 11 l46 25 3
-22 c2 -17 10 -22 33 -22 27 0 30 3 33 38 l3 37 -48 0 c-26 0 -57 -7 -67 -15
-30 -23 -103 -20 -116 5 -10 19 -49 28 -51 13z"/>
<path d="M20260 9782 c0 -16 33 -53 60 -67 60 -31 152 -8 180 45 15 27 -13 39
-39 16 -25 -23 -76 -30 -111 -16 -16 7 -30 16 -30 21 0 5 -13 9 -30 9 -16 0
-30 -3 -30 -8z"/>
<path d="M20730 9762 c0 -16 9 -37 20 -47 28 -25 109 -24 154 3 28 16 36 18
36 7 0 -15 35 -30 50 -20 5 3 10 24 10 46 0 37 -1 39 -32 39 -18 0 -41 -9 -53
-20 -34 -32 -135 -28 -135 6 0 8 -10 14 -25 14 -21 0 -25 -5 -25 -28z"/>
<path d="M3610 9505 l0 -145 1115 0 1115 0 0 145 0 145 -1115 0 -1115 0 0
-145z"/>
<path d="M6770 9505 l0 -145 645 0 645 0 1 28 c1 43 1 141 0 205 l-1 57 -645
0 -645 0 0 -145z"/>
<path d="M9775 8731 c-111 -26 -155 -43 -235 -95 -192 -125 -288 -316 -260
-518 39 -275 192 -396 670 -528 343 -95 456 -155 522 -277 61 -114 39 -273
-52 -376 -44 -51 -128 -105 -206 -134 -91 -34 -290 -43 -402 -19 -184 39 -318
154 -366 314 l-19 63 -101 -3 -101 -3 3 -44 c7 -109 93 -275 185 -356 68 -59
209 -128 318 -155 102 -24 299 -34 404 -19 172 25 353 113 447 218 87 96 138
237 138 377 0 207 -114 373 -325 473 -83 40 -191 77 -380 131 -299 85 -409
139 -473 232 -40 58 -54 107 -53 182 1 114 56 207 163 277 90 57 166 80 294
86 179 9 309 -29 410 -120 53 -48 104 -133 123 -204 l12 -43 99 0 c54 0 101 4
104 9 9 14 -30 154 -58 208 -75 150 -225 265 -408 315 -109 29 -345 34 -453 9z"/>
<path d="M3610 8580 l0 -140 1470 0 1470 0 0 140 0 140 -1470 0 -1470 0 0
-140z"/>
<path d="M11139 8688 c-1 -37 -1 -481 0 -1444 l1 -641 96 3 c53 1 98 4 100 6
3 3 6 1864 4 2091 0 15 -11 17 -100 17 l-100 0 -1 -32z"/>
<path d="M11740 8630 l0 -90 340 0 340 0 1 -27 c1 -16 2 -451 3 -968 l1 -940
85 0 c47 0 93 1 103 3 16 4 17 58 17 968 l0 964 345 0 c223 0 345 4 346 10 1
6 1 26 1 45 0 19 0 55 -1 80 l-1 45 -790 0 -790 0 0 -90z"/>
<path d="M13709 8713 c-1 -5 -3 -479 -3 -1055 l-2 -1048 36 -1 c112 -3 1228
-4 1243 0 16 3 17 14 15 94 l-3 91 -530 2 c-291 1 -536 2 -542 3 -18 1 -17
780 0 782 37 4 327 8 630 9 l347 0 0 90 0 90 -495 0 -495 0 0 385 0 385 530 0
530 0 0 90 0 90 -630 0 c-346 0 -631 -3 -631 -7z"/>
<path d="M15898 7668 c2 -579 5 -1054 7 -1056 3 -3 201 -5 383 -3 l72 1 0
1055 0 1055 -232 0 -233 0 3 -1052z"/>
<path d="M16715 7665 c0 -930 2 -1055 15 -1056 8 -1 110 -2 225 -3 l210 -1 5
665 5 665 41 -55 c22 -30 74 -104 116 -165 41 -60 139 -202 218 -315 206 -295
305 -438 405 -585 48 -71 103 -148 120 -170 l32 -40 194 2 c107 0 197 2 202 2
4 1 7 476 7 1056 l0 1055 -230 0 -230 0 0 -657 c0 -557 -2 -655 -14 -643 -7 8
-75 105 -150 215 -75 110 -245 355 -376 545 -131 190 -269 389 -305 443 l-67
97 -212 0 -212 0 1 -1055z"/>
<path d="M18870 7667 c0 -835 3 -1056 13 -1059 6 -2 212 -4 457 -3 473 2 524
6 687 56 250 77 475 287 575 536 64 162 73 216 73 468 0 218 -2 235 -27 327
-37 135 -112 286 -194 386 -124 154 -278 247 -519 313 -76 21 -103 23 -572 26
l-493 4 0 -1054z m927 647 c87 -20 193 -76 246 -129 125 -126 187 -336 173
-580 -17 -303 -145 -505 -365 -576 -57 -19 -96 -22 -293 -26 l-228 -5 0 666 0
666 199 0 c147 0 218 -4 268 -16z"/>
<path d="M21000 8693 c0 -16 -1 -490 -2 -1055 l-3 -1026 30 -4 c26 -3 880 -2
1303 1 l132 1 0 190 0 191 -482 -1 c-266 -1 -491 -1 -500 -1 -17 1 -18 20 -18
246 l0 245 455 0 455 0 0 190 0 190 -455 0 -455 0 0 224 c0 123 -3 231 -6 240
-5 14 44 16 497 18 l504 3 3 188 2 187 -730 0 -730 0 0 -27z"/>
<path d="M22688 8688 c102 -169 223 -365 287 -468 43 -69 108 -174 145 -235
36 -60 94 -156 128 -211 l62 -101 -105 -169 c-58 -93 -139 -223 -181 -289
-133 -211 -374 -600 -374 -605 0 -3 118 -4 262 -3 241 1 263 3 276 20 15 21
120 190 303 489 69 114 129 206 134 207 10 0 20 -15 272 -433 85 -140 160
-261 166 -267 9 -9 82 -13 269 -15 141 -1 259 0 262 3 3 3 -24 52 -61 109 -36
58 -122 195 -191 305 -391 627 -404 649 -394 665 28 43 174 278 227 365 33 54
140 226 237 382 l177 283 -267 0 -267 -1 -76 -127 c-212 -353 -342 -568 -349
-575 -4 -5 -103 152 -220 347 l-213 356 -264 0 -265 0 20 -32z"/>
<path d="M3610 7663 l0 -143 2228 0 2227 0 -3 143 -3 144 -2224 -1 -2225 -1 0
-142z"/>
<path d="M3610 6745 l0 -145 2228 0 2227 0 -3 145 -3 145 -2225 0 -2224 0 0
-145z"/>
<path d="M21270 6055 c-16 -19 -5 -61 17 -67 46 -11 74 22 53 62 -13 24 -52
27 -70 5z"/>
<path d="M15850 5993 c-2 -163 -2 -371 -1 -405 1 -33 4 -38 25 -38 16 0 26 7
29 21 l6 21 22 -21 c44 -41 138 -40 176 2 59 64 73 186 30 268 -40 77 -123
100 -191 54 -23 -15 -37 -20 -38 -12 0 7 -2 39 -3 72 -4 109 -3 105 -30 105
-24 0 -25 -2 -25 -67z m194 -133 c14 -5 32 -23 41 -39 18 -35 20 -124 4 -170
-22 -63 -110 -78 -158 -27 -32 34 -41 151 -16 194 28 47 75 63 129 42z"/>
<path d="M17168 6032 c-17 -3 -18 -23 -18 -243 l0 -239 30 0 30 0 1 193 c0
172 2 189 14 162 8 -16 32 -69 54 -117 22 -49 42 -88 44 -88 2 0 26 52 53 116
l49 116 3 -191 2 -191 30 0 30 0 -2 243 -3 242 -34 0 c-34 0 -35 -1 -80 -107
-25 -59 -49 -104 -52 -100 -4 4 -26 50 -49 104 -44 98 -56 110 -102 100z"/>
<path d="M17620 5795 l0 -245 145 0 145 0 0 25 0 25 -115 0 -115 0 0 85 0 85
115 0 115 0 0 25 c0 24 -2 25 -77 26 -43 1 -95 0 -115 -1 l-38 -2 0 84 0 83
115 -3 115 -2 0 30 0 30 -145 0 -145 0 0 -245z"/>
<path d="M18135 6025 c-114 -57 -140 -327 -42 -434 48 -52 143 -67 207 -33 30
16 89 96 79 107 -2 2 -16 6 -32 10 -20 5 -27 3 -27 -7 0 -8 -13 -27 -29 -42
-21 -20 -39 -27 -68 -28 -84 -1 -114 43 -121 175 -7 138 35 217 115 217 45 0
69 -14 88 -51 13 -24 20 -29 38 -23 12 3 24 8 26 10 11 10 -32 76 -61 94 -40
24 -129 27 -173 5z"/>
<path d="M18607 6027 c-9 -7 -45 -111 -82 -231 -37 -121 -69 -226 -72 -233 -4
-9 5 -13 29 -13 33 0 34 1 53 70 l19 70 87 0 86 0 19 -67 c19 -64 21 -68 52
-71 18 -2 32 0 32 4 0 4 -25 89 -56 188 -31 100 -64 205 -72 234 -10 32 -22
52 -32 53 -8 0 -23 2 -32 4 -9 2 -23 -2 -31 -8z m72 -168 c17 -59 31 -109 31
-113 0 -3 -31 -6 -70 -6 -38 0 -70 2 -70 5 0 4 50 166 66 214 7 20 8 16 43
-100z"/>
<path d="M22984 6026 c-3 -7 -4 -24 -3 -37 1 -13 1 -36 1 -51 -2 -27 -4 -28
-57 -28 -52 0 -55 -1 -55 -25 0 -24 3 -25 55 -25 l55 0 0 -129 c0 -115 2 -131
21 -155 20 -26 24 -27 113 -24 83 3 91 5 91 23 0 18 -8 20 -82 23 l-83 3 0
129 0 130 80 0 c79 0 80 0 80 25 0 25 -1 25 -80 25 l-80 0 0 65 c0 63 -1 65
-25 65 -14 0 -28 -6 -31 -14z"/>
<path d="M21660 5970 l0 -59 -57 -3 c-50 -3 -58 -6 -58 -23 0 -17 8 -20 57
-23 l57 -3 3 -140 c4 -172 2 -169 130 -169 87 0 88 0 88 25 0 25 -1 25 -80 25
l-80 0 0 130 0 129 78 3 c71 3 77 5 80 26 3 21 1 22 -77 22 l-81 0 0 60 0 60
-30 0 c-30 0 -30 0 -30 -60z"/>
<path d="M3713 5962 l-103 -3 0 -139 0 -140 2225 0 c2112 0 2225 1 2226 18 1
52 -3 257 -5 260 -4 4 -4205 8 -4343 4z"/>
<path d="M19435 5903 c-51 -28 -70 -65 -39 -77 9 -4 28 4 46 19 61 51 158 19
158 -53 l0 -29 -77 -5 c-45 -3 -92 -12 -110 -21 -68 -36 -64 -146 8 -182 49
-26 126 -16 154 19 l21 27 12 -26 c9 -20 19 -25 50 -25 45 0 52 4 45 31 -3 12
-14 19 -29 19 -23 0 -23 1 -19 110 4 127 -9 164 -65 192 -43 22 -115 22 -155
1z m163 -219 c6 -63 -66 -108 -136 -83 -59 20 -52 90 11 108 17 5 52 9 77 8
42 -2 45 -4 48 -33z"/>
<path d="M20085 5912 c-55 -8 -70 -16 -97 -44 l-28 -30 0 36 0 36 -76 0 c-72
0 -75 -1 -72 -22 3 -20 10 -23 51 -26 l47 -3 0 -130 0 -129 -50 0 c-47 0 -50
-2 -50 -25 l0 -25 145 0 145 0 0 25 c0 24 -2 25 -65 25 l-65 0 -1 38 c-4 111
1 165 17 183 19 21 74 39 120 39 25 0 33 5 36 24 5 26 -15 35 -57 28z"/>
<path d="M20319 5904 c-14 -9 -36 -32 -50 -52 -21 -31 -24 -46 -23 -121 0 -99
16 -140 67 -172 42 -26 117 -21 150 10 13 11 26 21 30 21 4 0 7 -40 7 -90 l0
-90 30 0 29 0 -1 250 -1 250 -28 0 c-22 0 -29 -5 -29 -20 0 -18 -2 -18 -36 5
-43 29 -106 33 -145 9z m159 -70 c19 -21 22 -36 22 -102 0 -91 -13 -116 -70
-133 -79 -24 -130 28 -130 131 0 60 22 113 53 128 35 18 99 5 125 -24z"/>
<path d="M22095 5906 c-103 -46 -129 -219 -46 -314 60 -69 186 -68 250 2 24
25 24 26 6 46 l-19 20 -30 -29 c-39 -37 -75 -46 -121 -31 -39 13 -75 59 -75
98 0 22 2 22 135 22 l135 0 0 33 c0 46 -39 118 -79 144 -39 26 -108 30 -156 9z
m124 -52 c19 -14 51 -69 51 -89 0 -3 -48 -5 -106 -5 l-106 0 6 28 c16 66 101
103 155 66z"/>
<path d="M22542 5903 c-111 -54 -123 -259 -20 -336 33 -25 117 -34 158 -17 30
12 80 63 80 80 0 5 -9 12 -21 15 -14 5 -27 -1 -44 -19 -45 -48 -120 -45 -159
7 -28 38 -30 149 -3 190 35 53 115 59 160 12 20 -21 24 -22 41 -10 17 13 18
18 6 39 -27 52 -131 73 -198 39z"/>
<path d="M24275 5902 c-16 -11 -36 -26 -44 -36 -12 -15 -12 -19 2 -33 15 -16
18 -15 41 6 60 57 166 28 166 -45 l0 -34 -52 0 c-112 0 -178 -39 -178 -104 0
-73 46 -116 125 -116 39 0 90 22 98 42 3 9 10 6 22 -9 12 -17 26 -23 56 -23
36 0 40 2 37 23 -2 14 -11 23 -25 25 -22 3 -23 7 -23 121 0 106 -2 121 -22
146 -42 54 -144 72 -203 37z m165 -227 c0 -40 -4 -48 -32 -66 -24 -14 -44 -19
-71 -15 -48 5 -67 21 -67 56 0 47 25 60 133 68 l37 3 0 -46z"/>
<path d="M16260 5905 c0 -4 30 -77 67 -163 69 -164 76 -197 52 -247 -12 -25
-21 -30 -57 -33 -37 -3 -42 -6 -42 -28 0 -22 4 -24 44 -24 24 0 52 3 61 6 16
7 47 60 70 123 7 20 43 108 79 196 36 88 66 163 66 168 0 4 -12 7 -28 7 -26 0
-30 -7 -84 -142 -41 -102 -59 -137 -63 -123 -4 11 -28 74 -54 140 -46 116 -49
120 -79 123 -18 2 -32 0 -32 -3z"/>
<path d="M20709 5908 c-6 -14 -4 -260 3 -283 13 -46 50 -77 100 -82 45 -5 108
17 108 37 0 6 4 10 9 10 5 0 8 -8 7 -17 -1 -14 7 -18 29 -18 l30 0 1 160 c0
88 -1 168 -4 178 -3 10 -14 17 -28 17 l-24 0 0 -131 0 -131 -29 -29 c-31 -31
-64 -36 -104 -18 -39 18 -47 50 -47 184 l0 125 -25 0 c-14 0 -25 -1 -26 -2z"/>
<path d="M21150 5885 c0 -24 2 -25 65 -25 l65 0 0 -130 0 -130 -65 0 c-63 0
-65 -1 -65 -25 l0 -25 155 0 155 0 0 25 c0 24 -2 25 -66 25 l-66 0 2 43 c1 23
1 93 1 155 l-1 112 -90 0 c-89 0 -90 0 -90 -25z"/>
<path d="M23341 5803 c0 -157 10 -201 49 -236 30 -27 38 -29 88 -25 46 4 59
10 79 34 l23 29 0 -27 c0 -24 4 -28 30 -28 l30 0 0 180 0 180 -30 0 -30 0 0
-131 0 -131 -29 -29 c-37 -36 -79 -38 -118 -5 -28 24 -28 25 -31 160 l-4 136
-29 0 -29 0 1 -107z"/>
<path d="M23780 5885 c0 -23 3 -25 45 -25 l45 0 0 -130 0 -130 -45 0 c-41 0
-45 -2 -45 -25 l0 -25 145 0 145 0 0 25 c0 24 -2 25 -70 25 l-70 0 0 99 c0 92
2 100 26 124 17 17 41 28 72 32 26 4 54 7 62 8 8 1 16 12 18 25 3 20 -1 22
-47 22 -60 0 -94 -14 -112 -46 -17 -33 -26 -30 -25 9 l1 32 -72 3 c-72 3 -73
3 -73 -23z"/>
</g>
</svg>
